<?xml version="1.0" encoding="UTF-8"?> <svg xmlns="http://www.w3.org/2000/svg" width="168" height="48" viewBox="0 0 168 48" fill="none"><path d="M85.4647 44.8808C73.5695 44.6196 61.6731 44.0925 49.7779 44.1716C36.1421 44.2626 22.5063 44.8592 8.87167 45.3193C6.94593 45.384 5.0202 45.8752 3.09918 46.2633C0.811411 46.7234 -0.265255 44.4184 0.0555043 39.6287C0.120364 38.6583 0.237111 37.6879 0.241828 36.7151C0.267771 31.2138 0.435227 25.758 0.837355 20.2974C1.19113 15.4837 1.22061 10.5718 1.41519 5.70784C1.45411 4.73504 1.54255 3.74787 1.69232 2.82299C2.04374 0.647385 2.82087 -0.339786 3.92938 0.105878C8.8127 2.07064 13.7467 1.40454 18.6678 1.29192C23.9851 1.17212 29.3 0.853445 34.6161 0.683325C40.128 0.506018 45.6399 0.307146 51.1517 0.278394C60.5339 0.230473 69.9185 0.09869 79.2995 0.402988C87.3232 0.664157 95.3399 1.60101 103.362 2.0299C111.095 2.44202 118.831 2.59058 126.566 2.84935C131.592 3.01707 136.621 3.4891 141.644 3.25189C148.694 2.92123 155.752 2.47078 162.763 0.628216C163.239 0.503622 163.728 0.426948 164.204 0.489246C164.93 0.585087 165.429 1.56507 165.578 3.06739C165.634 3.64244 165.626 4.24145 165.657 4.82849C165.981 11.087 166.591 17.24 167.172 23.417C167.643 28.408 167.769 33.5379 167.982 38.6199C168.038 39.9521 167.947 41.3874 167.751 42.6669C167.313 45.5253 166.705 46.2825 165.198 46.3256C164.232 46.3544 163.265 46.3664 162.301 46.4814C152.644 47.6339 142.976 48.2496 133.306 47.907C120.736 47.4613 108.169 46.6659 95.6017 45.9063C92.2207 45.7026 88.8468 45.0917 85.4694 44.6676C85.4671 44.7394 85.4647 44.8089 85.4624 44.8808H85.4647Z" fill="black"></path></svg> 