<?xml version="1.0" encoding="UTF-8"?> <svg xmlns="http://www.w3.org/2000/svg" width="180" height="60" viewBox="0 0 180 60" fill="none"><path d="M0.948898 12.5682C2.00826 10.3708 3.10512 10.2487 4.14334 10.0577C6.56762 9.61294 8.9981 9.20795 11.4423 9.04044C29.629 7.79779 47.8162 6.53906 66.0143 5.46977C70.4759 5.20752 74.978 5.64703 79.4601 5.71824C82.0229 5.75807 84.5823 5.6696 87.1442 5.69342C97.9258 5.79277 108.728 6.36479 119.46 5.32119C122.533 5.02109 125.641 4.96528 128.74 5.37045C133.579 6.00475 138.365 5.84427 143.12 5.04308C146.812 4.42086 150.466 3.34035 154.163 2.76608C159.023 2.01236 163.913 1.62909 168.777 0.920651C170.172 0.717147 171.11 1.90535 171.694 4.33476C172.226 6.55027 172.55 8.94376 173.002 11.2335C173.659 14.5583 174.31 17.8887 175.029 21.167C176.063 25.8809 177.325 30.4532 178.169 35.2663C178.752 38.5819 178.955 42.2193 179.038 45.6895C179.156 50.6596 177.46 53.5309 175.061 53.1094C167.664 51.8086 160.312 51.4743 153.02 52.882C147.439 53.961 141.842 54.9419 136.153 54.4583C135.832 54.4313 135.51 54.4953 135.191 54.4253C128.401 52.8754 121.765 54.4113 115.066 54.7676C109.111 55.0837 103.103 54.4471 97.1272 54.4325C85.6012 54.4055 74.0437 53.6494 62.561 54.6452C52.1509 55.5498 41.7204 56.121 31.3018 56.9003C24.0769 57.4394 16.8556 58.0641 9.63634 58.702C8.36455 58.8153 7.10459 59.1342 5.84967 59.4501C3.87341 59.944 2.44552 57.7533 2.28153 53.7523C2.11122 49.5964 1.83404 45.3931 1.9157 41.295C2.06836 33.6375 1.16474 25.9926 1.08288 18.3539C1.06169 16.4034 0.994634 14.4476 0.948745 12.5655L0.948898 12.5682Z" fill="black"></path></svg> 