<?xml version="1.0" encoding="UTF-8"?> <svg xmlns="http://www.w3.org/2000/svg" width="197" height="50" viewBox="0 0 197 50" fill="none"><path d="M176.321 3.29295C174.389 1.88872 172.139 2.09779 169.959 2.06643C158.969 1.8922 147.976 1.72843 136.983 1.60996C126.87 1.50194 116.753 1.55421 106.64 1.35908C84.6636 0.933978 62.6945 0.191789 40.7186 0.00711345C29.9601 -0.0834823 19.1912 0.710973 8.43614 1.26849C5.62749 1.41483 2.84987 2.18838 0.417297 2.61C-0.776566 4.46721 0.959 4.90277 1.07288 5.71813C1.37651 7.91334 3.17766 9.75313 1.85612 12.4396C0.869308 14.4502 0.855499 17.1541 1.07288 19.4852C1.19708 20.8302 2.64282 22.0498 3.30876 23.0498C3.30876 28.3671 3.30876 33.4335 3.30876 38.4999C3.30876 38.9424 3.23975 39.3884 3.24666 39.8309C3.37778 48.5421 5.37903 50.5178 13.8775 49.894C26.3819 48.9741 38.8864 48.2076 51.4323 48.2877C69.24 48.4062 87.0513 48.5421 104.859 48.5456C120.245 48.5456 135.63 48.3748 151.012 48.2772C158.924 48.225 166.846 48.3748 174.748 48.0403C179.744 47.8278 184.709 46.8904 189.768 46.2702C190.058 43.9809 187.96 44.8242 187.225 44.0123C186.514 43.2248 185.576 42.6464 184.116 41.4756C186.573 40.8798 188.37 40.4407 190.168 40.0156C192.021 39.5766 193.881 39.1515 197 38.4267C190.548 37.9807 185.4 37.6253 179.868 37.2455C182.846 35.7053 186.383 37.4963 188.885 34.552C186.942 33.4265 184.382 33.207 184.716 30.4159C182.194 29.3114 179.223 30.3358 177.194 28.2486C176.646 26.4855 178.771 27.0012 178.992 25.9105C178.923 23.2728 175.531 24.6387 174.858 22.325C177.688 21.9208 180.441 21.5271 183.322 21.1124C183.892 17.9451 180.514 17.7465 179.91 15.7011C180.069 14.3073 181.09 13.938 182.246 13.9763C185.182 14.0704 187.749 13.1052 190.979 11.3142C185.558 8.5266 181.411 4.93762 176.201 3.16751C174.865 4.56826 173.513 5.82964 171.108 3.3731C173.209 3.34174 174.769 3.31734 176.325 3.29295H176.321ZM159.794 23.224L159.318 23.2658L159.518 22.7571L159.794 23.224Z" fill="black"></path></svg> 