<?xml version="1.0" encoding="UTF-8"?> <svg xmlns="http://www.w3.org/2000/svg" width="99" height="52" viewBox="0 0 99 52" fill="none"><path d="M99 41.8068C97.4621 41.0903 96.5478 39.2248 96.2266 36.7646C95.9336 34.5274 95.1459 33.0269 93.8096 31.6649C92.6796 30.5125 92.0091 28.4206 91.198 26.8661C91.763 25.4163 92.1873 24.3247 92.5647 23.3615C91.5309 19.9178 88.9474 21.5637 87.3016 19.5529C87.7189 18.2754 88.1386 16.998 88.5629 15.6969C88.3918 15.3961 88.2628 14.9432 88.0471 14.825C87.4939 14.5242 86.8234 14.5512 86.3358 14.1254C83.2717 11.4489 80.1631 9.01224 76.4637 8.72499C76.119 8.69795 75.479 7.87674 75.5212 7.58948C75.7346 6.13292 75.2423 5.66993 74.4053 5.4773C73.0807 5.17315 71.7609 4.74395 70.4293 4.57836C57.9432 3.01366 45.4689 1.13804 32.9641 0.117437C27.0422 -0.36583 21.0547 0.766298 15.1024 1.26984C14.2514 1.34081 13.1097 1.61793 12.6408 2.43914C11.1826 4.99404 9.08205 5.35902 7.19953 6.57226C5.32404 7.78211 3.60328 9.53606 1.8919 11.2157C0.778328 12.3072 0.836937 14.2572 0.757233 15.9334C0.489975 21.5096 0.290703 27.0925 0.105499 32.6754C0.0211029 35.2506 0 37.8325 0 40.4111C0 41.9115 0.0187531 43.4289 0.168793 44.9091C0.665794 49.7655 1.96692 50.5326 4.59729 50.1879C10.0948 49.4647 15.6158 49.0896 21.111 48.3528C29.3209 47.2545 37.5121 47.7817 45.708 48.5658C56.2764 49.5762 66.8377 50.6948 77.4131 51.5262C82.9224 51.9588 88.4527 51.8912 93.9713 51.9993C94.7075 52.0128 95.4624 51.827 96.1797 51.5701C97.1011 51.2389 97.7739 50.4042 97.9802 48.9949C98.3154 46.7172 98.6272 44.4326 98.9977 41.8068H99Z" fill="black"></path></svg> 