<?xml version="1.0" encoding="UTF-8"?> <svg xmlns="http://www.w3.org/2000/svg" width="167" height="49" viewBox="0 0 167 49" fill="none"><path d="M84.9568 3.18562C73.1323 3.45223 61.3066 3.99033 49.4821 3.90961C35.9273 3.81667 22.3725 3.20763 8.81894 2.73801C6.90465 2.67197 4.99036 2.17055 3.08076 1.77431C0.806589 1.30469 -0.263679 3.65768 0.0551744 8.54712C0.119648 9.53773 0.235701 10.5283 0.24039 11.5214C0.26618 17.1373 0.43264 22.7067 0.832378 28.281C1.18405 33.1949 1.21336 38.209 1.40678 43.1743C1.44547 44.1674 1.53339 45.1751 1.68226 46.1192C2.03159 48.3401 2.80411 49.3479 3.90603 48.8929C8.76033 46.8872 13.665 47.5672 18.5568 47.6822C23.8425 47.8045 29.1259 48.1298 34.4104 48.3034C39.8895 48.4844 45.3686 48.6875 50.8477 48.7168C60.1742 48.7657 69.503 48.9003 78.8283 48.5896C86.8043 48.323 94.7732 47.3666 102.748 46.9288C110.435 46.5081 118.125 46.3565 125.813 46.0923C130.809 45.9211 135.809 45.4392 140.802 45.6814C147.811 46.0189 154.827 46.4788 161.796 48.3597C162.269 48.4869 162.755 48.5652 163.228 48.5016C163.95 48.4037 164.446 47.4033 164.594 45.8697C164.65 45.2827 164.642 44.6712 164.672 44.072C164.995 37.6832 165.601 31.402 166.179 25.0964C166.646 20.0015 166.772 14.7647 166.984 9.57686C167.039 8.21692 166.949 6.7518 166.754 5.44567C166.318 2.52766 165.714 1.75475 164.216 1.71072C163.256 1.68137 162.295 1.66914 161.336 1.55173C151.737 0.375233 142.126 -0.253376 132.514 0.0963936C120.019 0.551342 107.526 1.3634 95.0335 2.13876C91.6726 2.34666 88.3188 2.97038 84.9615 3.40331C84.9591 3.32993 84.9568 3.259 84.9545 3.18562H84.9568Z" fill="black"></path></svg> 